<?xml version="1.0" standalone="no"?><!DOCTYPE svg PUBLIC "-//W3C//DTD SVG 1.1//EN" "http://www.w3.org/Graphics/SVG/1.1/DTD/svg11.dtd"><svg t="1666705961860" class="icon" viewBox="0 0 1024 1024" version="1.1" xmlns="http://www.w3.org/2000/svg" p-id="7434" xmlns:xlink="http://www.w3.org/1999/xlink" width="200" height="200"><path d="M508.4 148.7c-89.7 0-162.5 72.7-162.5 162.5h324.9c0.1-89.8-72.6-162.5-162.4-162.5zM844.2 529.6H794c-2.7-27.6-8.6-54.1-17.3-79.1l40.1-23.1c7.6-4.4 10.2-14.1 5.8-21.7l-19.3-33.4c-4.4-7.6-14.1-10.2-21.7-5.8l-35 20.2c-8.1-13.3-16.9-26.2-26.6-38H298.8c-10 12.1-18.9 25.2-27.1 38.8l-36.5-21c-7.6-4.4-17.3-1.8-21.7 5.8l-19.3 33.4c-4.4 7.6-1.8 17.3 5.8 21.7l41.8 24.1c-8.5 24.7-14.3 50.9-17 78.2h-52.2c-8.8 0-15.9 7.1-15.9 15.9v38.6c0 8.8 7.1 15.9 15.9 15.9h52.1c2.7 27.3 8.6 53.4 17 78.2L200 702.2c-7.6 4.4-10.2 14.1-5.8 21.7l19.3 33.4c4.4 7.6 14.1 10.2 21.7 5.8l36-20.8c45.2 75.4 118.4 128.1 203 139.6V580.7c0-8.8 7.1-15.9 15.9-15.9h38.5c8.8 0 15.9 7.1 15.9 15.9V882c84.3-11.5 157.3-63.8 202.6-138.8l34.5 19.9c7.6 4.4 17.3 1.8 21.7-5.8l19.3-33.4c4.4-7.6 1.8-17.3-5.8-21.7L776.7 679c8.6-25.1 14.7-51.5 17.4-79.1h50.1c8.8 0 15.9-7.1 15.9-15.9v-38.6c0-8.7-7.1-15.8-15.9-15.8z" fill="#231815" p-id="7435"></path></svg>