<?xml version="1.0" standalone="no"?><!DOCTYPE svg PUBLIC "-//W3C//DTD SVG 1.1//EN" "http://www.w3.org/Graphics/SVG/1.1/DTD/svg11.dtd"><svg t="1666702559758" class="icon" viewBox="0 0 1024 1024" version="1.1" xmlns="http://www.w3.org/2000/svg" p-id="2101" xmlns:xlink="http://www.w3.org/1999/xlink" width="200" height="200"><path d="M512 920.32a65.706667 65.706667 0 0 1-40.533333-14.506667c-69.546667-58.026667-238.506667-202.666667-298.666667-292.266666-83.2-119.04-81.066667-274.773333 3.84-370.346667a221.44 221.44 0 0 1 198.4-67.84A198.4 198.4 0 0 1 512 266.666667a198.4 198.4 0 0 1 136.96-91.306667 220.586667 220.586667 0 0 1 198.4 67.84c85.333333 95.573333 85.333333 251.306667 5.12 370.346667-61.44 89.6-230.4 234.24-298.666667 292.266666a65.706667 65.706667 0 0 1-41.813333 14.506667zM341.333333 213.333333a177.92 177.92 0 0 0-133.12 58.026667c-71.68 81.066667-72.106667 213.333333 0 318.293333 58.026667 85.333333 223.573333 226.133333 291.84 283.306667a20.48 20.48 0 0 0 26.453334 0c68.266667-57.173333 233.813333-198.4 291.84-283.306667a262.4 262.4 0 0 0 0-318.293333 180.48 180.48 0 0 0-162.133334-53.76 162.56 162.56 0 0 0-124.586666 103.68 21.76 21.76 0 0 1-39.253334 0A163.413333 163.413333 0 0 0 341.333333 213.333333z" p-id="2102" fill="#8a8a8a
"></path><path d="M512 920.32a65.706667 65.706667 0 0 1-40.533333-14.506667c-69.546667-58.026667-238.506667-202.666667-298.666667-292.266666-83.2-119.04-81.066667-274.773333 3.84-370.346667a221.44 221.44 0 0 1 198.4-67.84A198.4 198.4 0 0 1 512 266.666667a198.4 198.4 0 0 1 136.96-91.306667 220.586667 220.586667 0 0 1 198.4 67.84c85.333333 95.573333 85.333333 251.306667 5.12 370.346667-61.44 89.6-230.4 234.24-298.666667 292.266666a65.706667 65.706667 0 0 1-41.813333 14.506667zM341.333333 213.333333a177.92 177.92 0 0 0-133.12 58.026667c-71.68 81.066667-72.106667 213.333333 0 318.293333 58.026667 85.333333 223.573333 226.133333 291.84 283.306667a20.48 20.48 0 0 0 26.453334 0c68.266667-57.173333 233.813333-198.4 291.84-283.306667a262.4 262.4 0 0 0 0-318.293333 180.48 180.48 0 0 0-162.133334-53.76 162.56 162.56 0 0 0-124.586666 103.68 21.76 21.76 0 0 1-39.253334 0A163.413333 163.413333 0 0 0 341.333333 213.333333z" p-id="2103" fill="#8a8a8a
"></path><path d="M263.68 570.453333a11.52 11.52 0 0 1-8.533333-3.84 240.64 240.64 0 0 1-49.493334-146.773333 11.093333 11.093333 0 0 1 10.666667-10.24 10.24 10.24 0 0 1 10.24 11.093333A218.026667 218.026667 0 0 0 272.213333 554.666667a11.093333 11.093333 0 0 1 0 14.933333 10.24 10.24 0 0 1-8.533333 0.853333zM221.866667 388.266667a10.666667 10.666667 0 0 1-8.533334-11.946667 128 128 0 0 1 20.053334-49.92 10.666667 10.666667 0 0 1 17.493333 12.373333 104.106667 104.106667 0 0 0-16.213333 42.666667 11.093333 11.093333 0 0 1-12.8 6.826667z"   fill="#8a8a8a
"></path></svg>