<?xml version="1.0" standalone="no"?><!DOCTYPE svg PUBLIC "-//W3C//DTD SVG 1.1//EN" "http://www.w3.org/Graphics/SVG/1.1/DTD/svg11.dtd"><svg t="1679399655989" class="icon" viewBox="0 0 1024 1024" version="1.1" xmlns="http://www.w3.org/2000/svg" p-id="1239" xmlns:xlink="http://www.w3.org/1999/xlink" width="200" height="200"><path d="M498.8928 512m-460.8 0a460.8 460.8 0 1 0 921.6 0 460.8 460.8 0 1 0-921.6 0Z" fill="#434341" p-id="1240"></path><path d="M540.4672 215.04l67.8912 137.5744a16.4864 16.4864 0 0 0 12.4416 9.0112l151.808 22.0672a46.3872 46.3872 0 0 1 25.6 79.1552l-109.824 107.0592a16.4864 16.4864 0 0 0-4.7616 14.592l25.9072 151.1936a46.3872 46.3872 0 0 1-67.2768 48.896l-135.68-71.4752a16.5888 16.5888 0 0 0-15.36 0l-135.7824 71.3728a46.3872 46.3872 0 0 1-67.328-48.896l25.9584-151.1936a16.4864 16.4864 0 0 0-4.7616-14.592L199.68 462.7456a46.4384 46.4384 0 0 1 25.6-79.1552l151.808-22.0672a16.4864 16.4864 0 0 0 12.4416-9.0112L457.2672 215.04a46.3872 46.3872 0 0 1 83.2 0z" fill="#FBD180" p-id="1241"></path></svg>